<?xml version="1.0" encoding="iso-8859-1"?>
<!-- Generator: Adobe Illustrator 16.0.0, SVG Export Plug-In . SVG Version: 6.00 Build 0)  -->
<!DOCTYPE svg PUBLIC "-//W3C//DTD SVG 1.1//EN" "http://www.w3.org/Graphics/SVG/1.1/DTD/svg11.dtd">
<svg version="1.1" id="Layer_1" xmlns="http://www.w3.org/2000/svg" xmlns:xlink="http://www.w3.org/1999/xlink" x="0px" y="0px"
	 width="480px" height="281px" viewBox="0 0 480 281" style="enable-background:new 0 0 480 281;" xml:space="preserve">
<g>
	<rect x="8.977" y="26.273" style="fill:none;" width="187.273" height="58.182"/>
	<path d="M19.782,42.79h-0.105c-0.898,1.305-2.242,1.957-4.031,1.957c-1.68,0-2.986-0.574-3.92-1.723s-1.4-2.781-1.4-4.898
		s0.469-3.762,1.406-4.934s2.242-1.758,3.914-1.758c1.742,0,3.078,0.633,4.008,1.898h0.152l-0.082-0.926l-0.047-0.902v-5.227h1.945
		v18.234H20.04L19.782,42.79z M15.891,43.118c1.328,0,2.291-0.361,2.889-1.084s0.896-1.889,0.896-3.498v-0.41
		c0-1.82-0.303-3.119-0.908-3.896s-1.572-1.166-2.9-1.166c-1.141,0-2.014,0.443-2.619,1.33s-0.908,2.139-0.908,3.756
		c0,1.641,0.301,2.879,0.902,3.715S14.727,43.118,15.891,43.118z"/>
	<path d="M33.645,44.513l-0.387-1.828h-0.094c-0.641,0.805-1.279,1.35-1.916,1.635s-1.432,0.428-2.385,0.428
		c-1.273,0-2.271-0.328-2.994-0.984s-1.084-1.59-1.084-2.801c0-2.594,2.074-3.953,6.223-4.078l2.18-0.07v-0.797
		c0-1.008-0.217-1.752-0.65-2.232s-1.127-0.721-2.08-0.721c-1.07,0-2.281,0.328-3.633,0.984l-0.598-1.488
		c0.633-0.344,1.326-0.613,2.08-0.809s1.51-0.293,2.268-0.293c1.531,0,2.666,0.34,3.404,1.02s1.107,1.77,1.107,3.27v8.766H33.645z
		 M29.25,43.142c1.211,0,2.162-0.332,2.854-0.996s1.037-1.594,1.037-2.789v-1.16l-1.945,0.082c-1.547,0.055-2.662,0.295-3.346,0.721
		s-1.025,1.088-1.025,1.986c0,0.703,0.213,1.238,0.639,1.605S28.485,43.142,29.25,43.142z"/>
	<path d="M43.243,43.142c0.344,0,0.676-0.025,0.996-0.076s0.574-0.104,0.762-0.158v1.488c-0.211,0.102-0.521,0.186-0.932,0.252
		s-0.779,0.1-1.107,0.1c-2.484,0-3.727-1.309-3.727-3.926v-7.641h-1.84v-0.938l1.84-0.809l0.82-2.742h1.125v2.977h3.727v1.512H41.18
		v7.559c0,0.773,0.184,1.367,0.551,1.781S42.602,43.142,43.243,43.142z"/>
	<path d="M55.465,44.513l-0.387-1.828h-0.094c-0.641,0.805-1.279,1.35-1.916,1.635s-1.432,0.428-2.385,0.428
		c-1.273,0-2.271-0.328-2.994-0.984s-1.084-1.59-1.084-2.801c0-2.594,2.074-3.953,6.223-4.078l2.18-0.07v-0.797
		c0-1.008-0.217-1.752-0.65-2.232s-1.127-0.721-2.08-0.721c-1.07,0-2.281,0.328-3.633,0.984l-0.598-1.488
		c0.633-0.344,1.326-0.613,2.08-0.809s1.51-0.293,2.268-0.293c1.531,0,2.666,0.34,3.404,1.02s1.107,1.77,1.107,3.27v8.766H55.465z
		 M51.071,43.142c1.211,0,2.162-0.332,2.854-0.996s1.037-1.594,1.037-2.789v-1.16l-1.945,0.082
		c-1.547,0.055-2.662,0.295-3.346,0.721s-1.025,1.088-1.025,1.986c0,0.703,0.213,1.238,0.639,1.605S50.305,43.142,51.071,43.142z"/>
	<path d="M72.938,33.181h-3.27v11.332h-1.945V33.181h-2.297v-0.879l2.297-0.703v-0.715c0-3.156,1.379-4.734,4.137-4.734
		c0.68,0,1.477,0.137,2.391,0.41l-0.504,1.559c-0.75-0.242-1.391-0.363-1.922-0.363c-0.734,0-1.277,0.244-1.629,0.732
		s-0.527,1.271-0.527,2.35v0.832h3.27V33.181z"/>
	<path d="M81.141,31.435c0.57,0,1.082,0.047,1.535,0.141l-0.27,1.805c-0.531-0.117-1-0.176-1.406-0.176
		c-1.039,0-1.928,0.422-2.666,1.266s-1.107,1.895-1.107,3.152v6.891h-1.945V31.669h1.605l0.223,2.379h0.094
		c0.477-0.836,1.051-1.48,1.723-1.934S80.336,31.435,81.141,31.435z"/>
	<path d="M92.977,44.513l-0.387-1.828h-0.094c-0.641,0.805-1.279,1.35-1.916,1.635s-1.432,0.428-2.385,0.428
		c-1.273,0-2.271-0.328-2.994-0.984s-1.084-1.59-1.084-2.801c0-2.594,2.074-3.953,6.223-4.078l2.18-0.07v-0.797
		c0-1.008-0.217-1.752-0.65-2.232s-1.127-0.721-2.08-0.721c-1.07,0-2.281,0.328-3.633,0.984l-0.598-1.488
		c0.633-0.344,1.326-0.613,2.08-0.809s1.51-0.293,2.268-0.293c1.531,0,2.666,0.34,3.404,1.02s1.107,1.77,1.107,3.27v8.766H92.977z
		 M88.583,43.142c1.211,0,2.162-0.332,2.854-0.996s1.037-1.594,1.037-2.789v-1.16l-1.945,0.082
		c-1.547,0.055-2.662,0.295-3.346,0.721s-1.025,1.088-1.025,1.986c0,0.703,0.213,1.238,0.639,1.605S87.817,43.142,88.583,43.142z"/>
	<path d="M114.797,44.513v-8.355c0-1.023-0.219-1.791-0.656-2.303s-1.117-0.768-2.039-0.768c-1.211,0-2.105,0.348-2.684,1.043
		s-0.867,1.766-0.867,3.211v7.172h-1.945v-8.355c0-1.023-0.219-1.791-0.656-2.303s-1.121-0.768-2.051-0.768
		c-1.219,0-2.111,0.365-2.678,1.096s-0.85,1.928-0.85,3.592v6.738h-1.945V31.669h1.582l0.316,1.758h0.094
		c0.367-0.625,0.885-1.113,1.553-1.465s1.416-0.527,2.244-0.527c2.008,0,3.32,0.727,3.938,2.18h0.094
		c0.383-0.672,0.938-1.203,1.664-1.594s1.555-0.586,2.484-0.586c1.453,0,2.541,0.373,3.264,1.119s1.084,1.939,1.084,3.58v8.379
		H114.797z"/>
	<path d="M126.176,44.747c-1.898,0-3.396-0.578-4.494-1.734s-1.646-2.762-1.646-4.816c0-2.07,0.51-3.715,1.529-4.934
		s2.389-1.828,4.107-1.828c1.609,0,2.883,0.529,3.82,1.588s1.406,2.455,1.406,4.189v1.23h-8.848c0.039,1.508,0.42,2.652,1.143,3.434
		s1.74,1.172,3.053,1.172c1.383,0,2.75-0.289,4.102-0.867v1.734c-0.688,0.297-1.338,0.51-1.951,0.639S127.043,44.747,126.176,44.747
		z M125.649,33.063c-1.031,0-1.854,0.336-2.467,1.008s-0.975,1.602-1.084,2.789h6.715c0-1.227-0.273-2.166-0.82-2.818
		S126.665,33.063,125.649,33.063z"/>
</g>
<rect x="144" y="28" style="fill:none;stroke:#000000;stroke-width:4;stroke-miterlimit:10;" width="93" height="68"/>
<rect x="248" y="28" style="fill:none;stroke:#29ABE2;stroke-width:4;stroke-miterlimit:10;" width="93" height="68"/>
<rect x="350" y="28" style="fill:none;stroke:#FF0000;stroke-width:4;stroke-miterlimit:10;" width="93" height="68"/>
<rect x="350" y="103" style="fill:none;stroke:#FF0000;stroke-width:4;stroke-miterlimit:10;" width="93" height="68"/>
<rect x="350" y="178" style="fill:none;stroke:#FF0000;stroke-width:4;stroke-miterlimit:10;" width="93" height="68"/>
<rect x="144" y="103" style="fill:none;stroke:#000000;stroke-width:4;stroke-miterlimit:10;" width="93" height="68"/>
<rect x="248" y="103" style="fill:none;stroke:#29ABE2;stroke-width:4;stroke-miterlimit:10;" width="93" height="68"/>
<rect x="144" y="178" style="fill:none;stroke:#000000;stroke-width:4;stroke-miterlimit:10;" width="93" height="68"/>
<rect x="248" y="178" style="fill:none;stroke:#29ABE2;stroke-width:4;stroke-miterlimit:10;" width="93" height="68"/>
<g>
	<rect x="181.167" y="45.75" style="fill:none;" width="21" height="29.5"/>
	<path d="M189.545,63.99h-1.898V51.779c0-1.016,0.031-1.977,0.094-2.883c-0.164,0.164-0.348,0.336-0.551,0.516
		s-1.133,0.941-2.789,2.285l-1.031-1.336l4.535-3.504h1.641V63.99z"/>
</g>
<g>
	<rect x="363" y="125.5" style="fill:none;" width="72" height="24"/>
	<path d="M367.348,143.74h-1.992v-17.133h9.551v1.77h-7.559v6.27h7.102v1.77h-7.102V143.74z"/>
	<path d="M388.512,143.74l-2.133-5.449h-6.867l-2.109,5.449h-2.016l6.773-17.203h1.676l6.738,17.203H388.512z M385.758,136.498
		l-1.992-5.309c-0.258-0.672-0.523-1.496-0.797-2.473c-0.172,0.75-0.418,1.574-0.738,2.473l-2.016,5.309H385.758z"/>
	<path d="M392.93,143.74v-17.133h1.992v15.328h7.559v1.805H392.93z"/>
	<path d="M415.055,139.181c0,1.508-0.547,2.684-1.641,3.527s-2.578,1.266-4.453,1.266c-2.031,0-3.594-0.262-4.688-0.785v-1.922
		c0.703,0.297,1.469,0.531,2.297,0.703s1.648,0.258,2.461,0.258c1.328,0,2.328-0.252,3-0.756s1.008-1.205,1.008-2.104
		c0-0.594-0.119-1.08-0.357-1.459s-0.637-0.729-1.195-1.049s-1.408-0.684-2.549-1.09c-1.594-0.57-2.732-1.246-3.416-2.027
		s-1.025-1.801-1.025-3.059c0-1.32,0.496-2.371,1.488-3.152s2.305-1.172,3.938-1.172c1.703,0,3.27,0.313,4.699,0.938L414,129.033
		c-1.414-0.594-2.789-0.891-4.125-0.891c-1.055,0-1.879,0.227-2.473,0.68s-0.891,1.082-0.891,1.887c0,0.594,0.109,1.08,0.328,1.459
		s0.588,0.727,1.107,1.043s1.314,0.666,2.385,1.049c1.797,0.641,3.033,1.328,3.709,2.063S415.055,138.009,415.055,139.181z"/>
	<path d="M428.109,143.74h-9.551v-17.133h9.551v1.77h-7.559v5.52h7.102v1.758h-7.102v6.305h7.559V143.74z"/>
</g>
<g>
	<rect x="363" y="48.5" style="fill:none;" width="72" height="24"/>
	<path d="M370.629,66.74h-1.992V51.376h-5.426v-1.77h12.844v1.77h-5.426V66.74z"/>
	<path d="M380.625,59.615v7.125h-1.992V49.607h4.699c2.102,0,3.654,0.402,4.658,1.207s1.506,2.016,1.506,3.633
		c0,2.266-1.148,3.797-3.445,4.594l4.652,7.699h-2.355l-4.148-7.125H380.625z M380.625,57.904h2.73c1.406,0,2.438-0.279,3.094-0.838
		s0.984-1.396,0.984-2.514c0-1.133-0.334-1.949-1.002-2.449s-1.74-0.75-3.217-0.75h-2.59V57.904z"/>
	<path d="M406.406,49.607v11.086c0,1.953-0.59,3.488-1.77,4.605s-2.801,1.676-4.863,1.676s-3.658-0.563-4.787-1.688
		s-1.693-2.672-1.693-4.641V49.607h1.992v11.18c0,1.43,0.391,2.527,1.172,3.293s1.93,1.148,3.445,1.148
		c1.445,0,2.559-0.385,3.34-1.154s1.172-1.873,1.172-3.311V49.607H406.406z"/>
	<path d="M420.492,66.74h-9.551V49.607h9.551v1.77h-7.559v5.52h7.102v1.758h-7.102v6.305h7.559V66.74z"/>
</g>
<g>
	<rect x="363" y="199.5" style="fill:none;" width="72" height="24"/>
	<path d="M370.629,217.74h-1.992v-15.363h-5.426v-1.77h12.844v1.77h-5.426V217.74z"/>
	<path d="M380.625,210.615v7.125h-1.992v-17.133h4.699c2.102,0,3.654,0.402,4.658,1.207s1.506,2.016,1.506,3.633
		c0,2.266-1.148,3.797-3.445,4.594l4.652,7.699h-2.355l-4.148-7.125H380.625z M380.625,208.904h2.73
		c1.406,0,2.438-0.279,3.094-0.838s0.984-1.396,0.984-2.514c0-1.133-0.334-1.949-1.002-2.449s-1.74-0.75-3.217-0.75h-2.59V208.904z"
		/>
	<path d="M406.406,200.607v11.086c0,1.953-0.59,3.488-1.77,4.605s-2.801,1.676-4.863,1.676s-3.658-0.563-4.787-1.688
		s-1.693-2.672-1.693-4.641v-11.039h1.992v11.18c0,1.43,0.391,2.527,1.172,3.293s1.93,1.148,3.445,1.148
		c1.445,0,2.559-0.385,3.34-1.154s1.172-1.873,1.172-3.311v-11.156H406.406z"/>
	<path d="M420.492,217.74h-9.551v-17.133h9.551v1.77h-7.559v5.52h7.102v1.758h-7.102v6.305h7.559V217.74z"/>
</g>
<g>
	<rect x="278.5" y="48.5" style="fill:none;" width="32" height="24"/>
	<path d="M278.934,55.478l-0.141-0.258c0.172-0.703,0.449-1.578,0.832-2.625s0.793-2.043,1.23-2.988h1.441
		c-0.516,1.984-0.918,3.941-1.207,5.871H278.934z M283.258,55.478l-0.176-0.258c0.438-1.68,1.133-3.551,2.086-5.613h1.441
		c-0.234,0.898-0.467,1.912-0.697,3.041s-0.396,2.072-0.498,2.83H283.258z"/>
	<path d="M298.926,62.181c0,1.508-0.547,2.684-1.641,3.527s-2.578,1.266-4.453,1.266c-2.031,0-3.594-0.262-4.688-0.785v-1.922
		c0.703,0.297,1.469,0.531,2.297,0.703s1.648,0.258,2.461,0.258c1.328,0,2.328-0.252,3-0.756s1.008-1.205,1.008-2.104
		c0-0.594-0.119-1.08-0.357-1.459s-0.637-0.729-1.195-1.049s-1.408-0.684-2.549-1.09c-1.594-0.57-2.732-1.246-3.416-2.027
		s-1.025-1.801-1.025-3.059c0-1.32,0.496-2.371,1.488-3.152s2.305-1.172,3.938-1.172c1.703,0,3.27,0.313,4.699,0.938l-0.621,1.734
		c-1.414-0.594-2.789-0.891-4.125-0.891c-1.055,0-1.879,0.227-2.473,0.68s-0.891,1.082-0.891,1.887c0,0.594,0.109,1.08,0.328,1.459
		s0.588,0.727,1.107,1.043s1.314,0.666,2.385,1.049c1.797,0.641,3.033,1.328,3.709,2.063S298.926,61.009,298.926,62.181z"/>
	<path d="M303.695,49.607l0.176,0.258c-0.203,0.781-0.496,1.689-0.879,2.725s-0.781,1.998-1.195,2.889h-1.43
		c0.547-2.227,0.945-4.184,1.195-5.871H303.695z M308.02,49.607l0.164,0.258c-0.188,0.711-0.469,1.586-0.844,2.625
		s-0.781,2.035-1.219,2.988h-1.465c0.203-0.781,0.434-1.773,0.691-2.977s0.438-2.168,0.539-2.895H308.02z"/>
</g>
<g>
	<rect x="277.5" y="125.5" style="fill:none;" width="32" height="24"/>
	<path d="M277.934,132.478l-0.141-0.258c0.172-0.703,0.449-1.578,0.832-2.625s0.793-2.043,1.23-2.988h1.441
		c-0.516,1.984-0.918,3.941-1.207,5.871H277.934z M282.258,132.478l-0.176-0.258c0.438-1.68,1.133-3.551,2.086-5.613h1.441
		c-0.234,0.898-0.467,1.912-0.697,3.041s-0.396,2.072-0.498,2.83H282.258z"/>
	<path d="M299.027,143.74l-2.133-5.449h-6.867l-2.109,5.449h-2.016l6.773-17.203h1.676l6.738,17.203H299.027z M296.273,136.498
		l-1.992-5.309c-0.258-0.672-0.523-1.496-0.797-2.473c-0.172,0.75-0.418,1.574-0.738,2.473l-2.016,5.309H296.273z"/>
	<path d="M304.711,126.607l0.176,0.258c-0.203,0.781-0.496,1.689-0.879,2.725s-0.781,1.998-1.195,2.889h-1.43
		c0.547-2.227,0.945-4.184,1.195-5.871H304.711z M309.035,126.607l0.164,0.258c-0.188,0.711-0.469,1.586-0.844,2.625
		s-0.781,2.035-1.219,2.988h-1.465c0.203-0.781,0.434-1.773,0.691-2.977s0.438-2.168,0.539-2.895H309.035z"/>
</g>
<g>
	<rect x="274" y="199.5" style="fill:none;" width="41" height="24"/>
	<path d="M274.434,206.478l-0.141-0.258c0.172-0.703,0.449-1.578,0.832-2.625s0.793-2.043,1.23-2.988h1.441
		c-0.516,1.984-0.918,3.941-1.207,5.871H274.434z M278.758,206.478l-0.176-0.258c0.438-1.68,1.133-3.551,2.086-5.613h1.441
		c-0.234,0.898-0.467,1.912-0.697,3.041s-0.396,2.072-0.498,2.83H278.758z"/>
	<path d="M297.695,200.607v11.086c0,1.953-0.59,3.488-1.77,4.605s-2.801,1.676-4.863,1.676s-3.658-0.563-4.787-1.688
		s-1.693-2.672-1.693-4.641v-11.039h1.992v11.18c0,1.43,0.391,2.527,1.172,3.293s1.93,1.148,3.445,1.148
		c1.445,0,2.559-0.385,3.34-1.154s1.172-1.873,1.172-3.311v-11.156H297.695z"/>
	<path d="M303.496,200.607l0.176,0.258c-0.203,0.781-0.496,1.689-0.879,2.725s-0.781,1.998-1.195,2.889h-1.43
		c0.547-2.227,0.945-4.184,1.195-5.871H303.496z M307.82,200.607l0.164,0.258c-0.188,0.711-0.469,1.586-0.844,2.625
		s-0.781,2.035-1.219,2.988h-1.465c0.203-0.781,0.434-1.773,0.691-2.977s0.438-2.168,0.539-2.895H307.82z"/>
</g>
<g>
	<rect x="181.167" y="122.75" style="fill:none;" width="21" height="29.5"/>
	<path d="M184.506,140.99l7.102-15.34h-9.34v-1.793h11.402v1.559l-7.008,15.574H184.506z"/>
</g>
<g>
	<rect x="181.167" y="196.75" style="fill:none;" width="21" height="29.5"/>
	<path d="M192.956,201.888c0,1.094-0.307,1.988-0.92,2.684s-1.482,1.16-2.607,1.395v0.094c1.375,0.172,2.395,0.609,3.059,1.313
		s0.996,1.625,0.996,2.766c0,1.633-0.566,2.889-1.699,3.768s-2.742,1.318-4.828,1.318c-0.906,0-1.736-0.068-2.49-0.205
		s-1.486-0.377-2.197-0.721v-1.852c0.742,0.367,1.533,0.646,2.373,0.838s1.635,0.287,2.385,0.287c2.961,0,4.441-1.16,4.441-3.48
		c0-2.078-1.633-3.117-4.898-3.117h-1.688v-1.676h1.711c1.336,0,2.395-0.295,3.176-0.885s1.172-1.408,1.172-2.455
		c0-0.836-0.287-1.492-0.861-1.969s-1.354-0.715-2.338-0.715c-0.75,0-1.457,0.102-2.121,0.305s-1.422,0.578-2.273,1.125
		l-0.984-1.313c0.703-0.555,1.514-0.99,2.432-1.307s1.885-0.475,2.9-0.475c1.664,0,2.957,0.381,3.879,1.143
		S192.956,200.56,192.956,201.888z"/>
</g>
<g>
	<rect x="155.5" y="252" style="fill:none;" width="81.5" height="29"/>
	<path d="M163.639,265.68v-6.231c0-0.785-0.179-1.371-0.536-1.758s-0.917-0.58-1.679-0.58c-1.008,0-1.746,0.272-2.215,0.817
		s-0.703,1.444-0.703,2.698v5.054h-1.459v-9.633h1.187l0.237,1.318h0.07c0.299-0.475,0.718-0.842,1.257-1.103
		s1.14-0.391,1.802-0.391c1.16,0,2.033,0.28,2.619,0.839s0.879,1.455,0.879,2.685v6.284H163.639z"/>
	<path d="M169.466,256.047v6.249c0,0.785,0.179,1.371,0.536,1.758s0.917,0.58,1.679,0.58c1.008,0,1.745-0.275,2.21-0.826
		s0.699-1.45,0.699-2.698v-5.063h1.459v9.633h-1.204l-0.211-1.292h-0.079c-0.299,0.475-0.713,0.838-1.244,1.09
		s-1.135,0.378-1.815,0.378c-1.172,0-2.049-0.278-2.632-0.835s-0.875-1.447-0.875-2.672v-6.302H169.466z"/>
	<path d="M191.421,265.68v-6.267c0-0.768-0.164-1.343-0.492-1.727s-0.838-0.576-1.529-0.576c-0.908,0-1.579,0.261-2.013,0.782
		s-0.65,1.324-0.65,2.408v5.379h-1.459v-6.267c0-0.768-0.164-1.343-0.492-1.727s-0.841-0.576-1.538-0.576
		c-0.914,0-1.583,0.274-2.008,0.822s-0.637,1.446-0.637,2.694v5.054h-1.459v-9.633h1.187l0.237,1.318h0.07
		c0.275-0.469,0.664-0.835,1.165-1.099s1.062-0.396,1.683-0.396c1.506,0,2.49,0.545,2.953,1.635h0.07
		c0.287-0.504,0.703-0.902,1.248-1.195s1.166-0.439,1.863-0.439c1.09,0,1.906,0.28,2.448,0.839s0.813,1.455,0.813,2.685v6.284
		H191.421z"/>
	<path d="M199.955,265.855c-1.424,0-2.547-0.434-3.371-1.301s-1.235-2.071-1.235-3.612c0-1.553,0.382-2.786,1.147-3.7
		s1.792-1.371,3.081-1.371c1.207,0,2.162,0.397,2.865,1.191s1.055,1.841,1.055,3.142v0.923h-6.636
		c0.029,1.131,0.315,1.989,0.857,2.575s1.305,0.879,2.29,0.879c1.037,0,2.063-0.217,3.076-0.65v1.301
		c-0.516,0.223-1.003,0.382-1.463,0.479S200.605,265.855,199.955,265.855z M199.56,257.093c-0.773,0-1.39,0.252-1.85,0.756
		s-0.731,1.201-0.813,2.092h5.036c0-0.92-0.205-1.625-0.615-2.114S200.321,257.093,199.56,257.093z"/>
	<path d="M210.379,255.871c0.428,0,0.812,0.035,1.151,0.105l-0.202,1.354c-0.398-0.088-0.75-0.132-1.055-0.132
		c-0.779,0-1.446,0.316-2,0.949s-0.831,1.421-0.831,2.364v5.168h-1.459v-9.633h1.204l0.167,1.784h0.07
		c0.357-0.627,0.788-1.11,1.292-1.45S209.775,255.871,210.379,255.871z"/>
	<path d="M213.209,253.437c0-0.334,0.082-0.579,0.246-0.734s0.369-0.233,0.615-0.233c0.234,0,0.437,0.079,0.606,0.237
		s0.255,0.401,0.255,0.729s-0.085,0.573-0.255,0.734s-0.372,0.242-0.606,0.242c-0.246,0-0.451-0.081-0.615-0.242
		S213.209,253.765,213.209,253.437z M214.791,265.68h-1.459v-9.633h1.459V265.68z"/>
	<path d="M221.734,265.855c-1.395,0-2.474-0.429-3.239-1.288s-1.147-2.073-1.147-3.643c0-1.611,0.388-2.856,1.165-3.735
		s1.882-1.318,3.318-1.318c0.463,0,0.926,0.05,1.389,0.149s0.826,0.217,1.09,0.352l-0.448,1.239
		c-0.322-0.129-0.674-0.236-1.055-0.321s-0.718-0.127-1.011-0.127c-1.957,0-2.936,1.248-2.936,3.744
		c0,1.184,0.239,2.092,0.716,2.725s1.185,0.949,2.123,0.949c0.803,0,1.626-0.173,2.47-0.519v1.292
		C223.524,265.688,222.713,265.855,221.734,265.855z"/>
</g>
<g>
	<rect x="255.25" y="252" style="fill:none;" width="81.5" height="29"/>
	<path d="M260.646,265.855c-1.395,0-2.474-0.429-3.239-1.288s-1.147-2.073-1.147-3.643c0-1.611,0.388-2.856,1.165-3.735
		s1.882-1.318,3.318-1.318c0.463,0,0.926,0.05,1.389,0.149s0.826,0.217,1.09,0.352l-0.448,1.239
		c-0.322-0.129-0.674-0.236-1.055-0.321s-0.718-0.127-1.011-0.127c-1.957,0-2.936,1.248-2.936,3.744
		c0,1.184,0.239,2.092,0.716,2.725s1.185,0.949,2.123,0.949c0.803,0,1.626-0.173,2.47-0.519v1.292
		C262.437,265.688,261.625,265.855,260.646,265.855z"/>
	<path d="M271.958,265.68v-6.231c0-0.785-0.179-1.371-0.536-1.758s-0.917-0.58-1.679-0.58c-1.014,0-1.753,0.275-2.219,0.826
		s-0.699,1.453-0.699,2.707v5.036h-1.459v-13.676h1.459v4.14c0,0.498-0.023,0.911-0.07,1.239h0.088
		c0.287-0.463,0.696-0.828,1.226-1.094s1.135-0.4,1.815-0.4c1.178,0,2.061,0.28,2.65,0.839s0.883,1.449,0.883,2.667v6.284H271.958z"
		/>
	<path d="M282.338,265.68l-0.29-1.371h-0.07c-0.48,0.604-0.959,1.012-1.437,1.226s-1.074,0.321-1.789,0.321
		c-0.955,0-1.704-0.246-2.246-0.738s-0.813-1.192-0.813-2.101c0-1.945,1.556-2.965,4.667-3.059l1.635-0.053v-0.598
		c0-0.756-0.163-1.314-0.488-1.674s-0.845-0.541-1.56-0.541c-0.803,0-1.711,0.246-2.725,0.738l-0.448-1.116
		c0.475-0.258,0.995-0.46,1.56-0.606s1.132-0.22,1.701-0.22c1.148,0,2,0.255,2.553,0.765s0.831,1.327,0.831,2.452v6.574H282.338z
		 M279.042,264.651c0.908,0,1.622-0.249,2.14-0.747s0.778-1.195,0.778-2.092v-0.87l-1.459,0.062
		c-1.16,0.041-1.997,0.221-2.509,0.541s-0.769,0.816-0.769,1.49c0,0.527,0.16,0.929,0.479,1.204S278.468,264.651,279.042,264.651z"
		/>
	<path d="M290.819,255.871c0.428,0,0.812,0.035,1.151,0.105l-0.202,1.354c-0.398-0.088-0.75-0.132-1.055-0.132
		c-0.779,0-1.446,0.316-2,0.949s-0.831,1.421-0.831,2.364v5.168h-1.459v-9.633h1.204l0.167,1.784h0.07
		c0.357-0.627,0.788-1.11,1.292-1.45S290.216,255.871,290.819,255.871z"/>
	<path d="M299.696,265.68l-0.29-1.371h-0.07c-0.48,0.604-0.959,1.012-1.437,1.226s-1.074,0.321-1.789,0.321
		c-0.955,0-1.704-0.246-2.246-0.738s-0.813-1.192-0.813-2.101c0-1.945,1.556-2.965,4.667-3.059l1.635-0.053v-0.598
		c0-0.756-0.163-1.314-0.488-1.674s-0.845-0.541-1.56-0.541c-0.803,0-1.711,0.246-2.725,0.738l-0.448-1.116
		c0.475-0.258,0.995-0.46,1.56-0.606s1.132-0.22,1.701-0.22c1.148,0,2,0.255,2.553,0.765s0.831,1.327,0.831,2.452v6.574H299.696z
		 M296.4,264.651c0.908,0,1.622-0.249,2.14-0.747s0.778-1.195,0.778-2.092v-0.87l-1.459,0.062c-1.16,0.041-1.997,0.221-2.509,0.541
		s-0.769,0.816-0.769,1.49c0,0.527,0.16,0.929,0.479,1.204S295.826,264.651,296.4,264.651z"/>
	<path d="M307.633,265.855c-1.395,0-2.474-0.429-3.239-1.288s-1.147-2.073-1.147-3.643c0-1.611,0.388-2.856,1.165-3.735
		s1.882-1.318,3.318-1.318c0.463,0,0.926,0.05,1.389,0.149s0.826,0.217,1.09,0.352l-0.448,1.239
		c-0.322-0.129-0.674-0.236-1.055-0.321s-0.718-0.127-1.011-0.127c-1.957,0-2.936,1.248-2.936,3.744
		c0,1.184,0.239,2.092,0.716,2.725s1.185,0.949,2.123,0.949c0.803,0,1.626-0.173,2.47-0.519v1.292
		C309.423,265.688,308.611,265.855,307.633,265.855z"/>
	<path d="M315.464,264.651c0.258,0,0.507-0.019,0.747-0.057s0.431-0.078,0.571-0.119v1.116c-0.158,0.076-0.391,0.139-0.699,0.189
		s-0.584,0.075-0.831,0.075c-1.863,0-2.795-0.981-2.795-2.944v-5.73h-1.38v-0.703l1.38-0.606l0.615-2.057h0.844v2.232h2.795v1.134
		h-2.795v5.669c0,0.58,0.138,1.025,0.413,1.336S314.983,264.651,315.464,264.651z"/>
	<path d="M322.776,265.855c-1.424,0-2.547-0.434-3.371-1.301s-1.235-2.071-1.235-3.612c0-1.553,0.382-2.786,1.147-3.7
		s1.792-1.371,3.081-1.371c1.207,0,2.162,0.397,2.865,1.191s1.055,1.841,1.055,3.142v0.923h-6.636
		c0.029,1.131,0.315,1.989,0.857,2.575s1.305,0.879,2.29,0.879c1.037,0,2.063-0.217,3.076-0.65v1.301
		c-0.516,0.223-1.003,0.382-1.463,0.479S323.427,265.855,322.776,265.855z M322.381,257.093c-0.773,0-1.39,0.252-1.85,0.756
		s-0.731,1.201-0.813,2.092h5.036c0-0.92-0.205-1.625-0.615-2.114S323.143,257.093,322.381,257.093z"/>
	<path d="M333.2,255.871c0.428,0,0.812,0.035,1.151,0.105l-0.202,1.354c-0.398-0.088-0.75-0.132-1.055-0.132
		c-0.779,0-1.446,0.316-2,0.949s-0.831,1.421-0.831,2.364v5.168h-1.459v-9.633h1.204l0.167,1.784h0.07
		c0.357-0.627,0.788-1.11,1.292-1.45S332.597,255.871,333.2,255.871z"/>
</g>
<g>
	<rect x="365" y="252" style="fill:none;" width="81.5" height="29"/>
	<path d="M368.006,265.68h-1.459v-13.676h1.459V265.68z"/>
	<path d="M379.414,260.854c0,1.57-0.396,2.796-1.187,3.678s-1.884,1.323-3.278,1.323c-0.861,0-1.626-0.202-2.294-0.606
		s-1.184-0.984-1.547-1.74s-0.545-1.641-0.545-2.654c0-1.57,0.393-2.793,1.178-3.669s1.875-1.314,3.27-1.314
		c1.348,0,2.419,0.448,3.212,1.345C379.018,258.112,379.414,259.325,379.414,260.854z M372.075,260.854
		c0,1.23,0.246,2.168,0.738,2.813s1.216,0.967,2.171,0.967s1.68-0.321,2.176-0.962c0.494-0.642,0.742-1.581,0.742-2.817
		c0-1.225-0.248-2.155-0.742-2.791c-0.496-0.636-1.227-0.954-2.193-0.954c-0.955,0-1.676,0.313-2.162,0.94
		S372.075,259.612,372.075,260.854z"/>
	<path d="M389.855,256.047v0.923l-1.784,0.211c0.164,0.205,0.311,0.473,0.439,0.804s0.193,0.705,0.193,1.121
		c0,0.943-0.322,1.696-0.967,2.259s-1.529,0.844-2.654,0.844c-0.287,0-0.557-0.023-0.809-0.07c-0.621,0.328-0.932,0.741-0.932,1.239
		c0,0.264,0.108,0.458,0.325,0.584s0.589,0.189,1.116,0.189h1.705c1.043,0,1.845,0.22,2.403,0.659
		c0.561,0.439,0.84,1.078,0.84,1.916c0,1.066-0.428,1.879-1.283,2.439s-2.104,0.839-3.744,0.839c-1.26,0-2.23-0.234-2.914-0.703
		c-0.682-0.469-1.023-1.131-1.023-1.986c0-0.586,0.188-1.093,0.563-1.521s0.902-0.718,1.582-0.87
		c-0.246-0.111-0.453-0.284-0.619-0.519c-0.168-0.234-0.251-0.507-0.251-0.817c0-0.352,0.094-0.659,0.281-0.923
		s0.483-0.519,0.888-0.765c-0.498-0.205-0.904-0.554-1.217-1.046c-0.314-0.492-0.471-1.055-0.471-1.688
		c0-1.055,0.316-1.868,0.949-2.439s1.529-0.857,2.689-0.857c0.504,0,0.958,0.059,1.362,0.176H389.855z M382.174,267.297
		c0,0.521,0.22,0.917,0.659,1.187s1.069,0.404,1.89,0.404c1.225,0,2.131-0.183,2.721-0.549c0.588-0.366,0.883-0.863,0.883-1.49
		c0-0.521-0.161-0.883-0.483-1.085s-0.929-0.303-1.819-0.303h-1.749c-0.662,0-1.178,0.158-1.547,0.475
		S382.174,266.705,382.174,267.297z M382.965,259.132c0,0.674,0.19,1.184,0.571,1.529s0.911,0.519,1.591,0.519
		c1.424,0,2.136-0.691,2.136-2.074c0-1.447-0.721-2.171-2.162-2.171c-0.686,0-1.213,0.185-1.582,0.554
		S382.965,258.405,382.965,259.132z"/>
	<path d="M391.71,253.437c0-0.334,0.082-0.579,0.246-0.734s0.369-0.233,0.615-0.233c0.234,0,0.437,0.079,0.606,0.237
		s0.255,0.401,0.255,0.729s-0.085,0.573-0.255,0.734s-0.372,0.242-0.606,0.242c-0.246,0-0.451-0.081-0.615-0.242
		S391.71,253.765,391.71,253.437z M393.292,265.68h-1.459v-9.633h1.459V265.68z"/>
	<path d="M400.235,265.855c-1.395,0-2.474-0.429-3.239-1.288c-0.764-0.858-1.146-2.073-1.146-3.643c0-1.611,0.389-2.856,1.164-3.735
		c0.777-0.879,1.883-1.318,3.318-1.318c0.463,0,0.926,0.05,1.389,0.149s0.826,0.217,1.09,0.352l-0.448,1.239
		c-0.322-0.129-0.674-0.236-1.055-0.321s-0.718-0.127-1.011-0.127c-1.957,0-2.936,1.248-2.936,3.744
		c0,1.184,0.238,2.092,0.717,2.725c0.477,0.633,1.185,0.949,2.122,0.949c0.803,0,1.626-0.173,2.47-0.519v1.292
		C402.025,265.688,401.214,265.855,400.235,265.855z"/>
	<path d="M410.879,265.68l-0.29-1.371h-0.07c-0.48,0.604-0.96,1.012-1.437,1.226c-0.479,0.214-1.074,0.321-1.789,0.321
		c-0.955,0-1.703-0.246-2.246-0.738c-0.541-0.492-0.813-1.192-0.813-2.101c0-1.945,1.556-2.965,4.667-3.059l1.635-0.053v-0.598
		c0-0.756-0.163-1.314-0.487-1.674c-0.326-0.36-0.846-0.541-1.561-0.541c-0.803,0-1.711,0.246-2.725,0.738l-0.448-1.116
		c0.475-0.258,0.995-0.46,1.56-0.606c0.566-0.146,1.133-0.22,1.701-0.22c1.148,0,2,0.255,2.553,0.765
		c0.555,0.51,0.831,1.327,0.831,2.452v6.574H410.879z M407.583,264.651c0.908,0,1.622-0.249,2.14-0.747
		c0.52-0.498,0.778-1.195,0.778-2.092v-0.87l-1.459,0.062c-1.16,0.041-1.997,0.221-2.509,0.541c-0.514,0.319-0.77,0.816-0.77,1.49
		c0,0.527,0.16,0.929,0.479,1.204C406.563,264.514,407.009,264.651,407.583,264.651z"/>
	<path d="M416.425,265.68h-1.459v-13.676h1.459V265.68z"/>
</g>
</svg>
